<?xml version="1.0" encoding="iso-8859-1"?>
<!-- Uploaded to: SVG Repo, www.svgrepo.com, Generator: SVG Repo Mixer Tools -->
<svg fill="#000000" height="800px" width="800px" version="1.1" id="Layer_1" xmlns="http://www.w3.org/2000/svg" xmlns:xlink="http://www.w3.org/1999/xlink" 
	 viewBox="0 0 512.063 512.063" xml:space="preserve">
<g>
	<g>
		<g>
			<path d="M511.984,58.287c0.006-0.211,0.001-0.053-0.001,0.021c0.177-5.639-4.555-10.394-10.152-10.301H254.632
				c-2.652,0-5.196,1.054-7.071,2.929L35.516,262.992c-1.5,1.431-2.568,3.326-2.949,5.494L0.152,452.322
				c-0.514,2.911,0.287,5.9,2.188,8.164c1.899,2.265,4.704,3.572,7.66,3.572h247.344c2.704,0,5.348-1.12,7.229-3.075L476.65,248.906
				c1.451-1.451,2.421-3.314,2.776-5.335l32.365-183.554c0.115-0.556,0.172-1.126,0.191-1.693c0,0.018-0.001,0.023,0.001-0.009
				c0.055-1.728,0.076-2.382,0.079-2.465C512.057,56.002,511.992,58.026,511.984,58.287z M258.774,68.005h219.072L287.38,258.495
				l-1.727,1.727H66.569L258.774,68.005z M262.873,365.254l-13.906,78.804H21.918l28.888-163.836h227.06L262.873,365.254z
				 M460.277,236.994L272.725,424.546l9.297-52.724l17.074-96.758L486.634,87.515L460.277,236.994z"/>
			<path d="M512.062,55.85C512.063,55.838,512.063,55.837,512.062,55.85L512.062,55.85z"/>
			<path d="M303.627,186.112c-3.906-3.905-10.238-3.905-14.143,0l-31.07,31.072c-3.905,3.905-3.905,10.237,0,14.142
				c1.953,1.953,4.512,2.929,7.071,2.929s5.119-0.977,7.071-2.929l31.07-31.072C307.532,196.349,307.532,190.018,303.627,186.112z"
				/>
			<path d="M326.304,173.434c2.56,0,5.119-0.977,7.071-2.929l60.818-60.823c3.905-3.905,3.905-10.237,0-14.142
				c-3.906-3.905-10.238-3.905-14.143,0l-60.818,60.823c-3.905,3.905-3.905,10.237,0,14.142
				C321.185,172.458,323.744,173.434,326.304,173.434z"/>
		</g>
	</g>
</g>
</svg>